<svg width="91" height="172" viewBox="0 0 91 172" fill="none" xmlns="http://www.w3.org/2000/svg">
<path d="M29.4291 1.54125C27.3063 2.50614 21.903 6.65516 17.561 10.8042C11.7716 16.0146 8.87698 18.0408 7.42964 17.8479C4.53498 17.4619 4.53498 13.7953 7.52613 13.4094C9.93835 13.0234 10.3243 11.7691 8.20155 10.9007C4.63146 9.54982 0 13.3129 0 17.6549C0 23.6372 7.71911 27.6897 16.982 26.3389C22.1924 25.6635 27.1134 23.2512 33.3851 18.2338C40.2359 12.8304 44.0954 10.9972 47.1831 11.7691C48.5339 12.0585 52.7794 14.6637 56.446 17.4619C64.8405 23.8302 68.3141 25.6635 73.7175 26.3389C82.9804 27.6897 90.6995 23.6372 90.6995 17.6549C90.6995 13.3129 86.0681 9.54982 82.498 10.9007C80.3752 11.7691 80.7612 13.0234 83.2699 13.4094C84.6207 13.6024 85.3926 14.3743 85.3926 15.6286C85.3926 17.1724 84.8137 17.5584 82.6909 17.3654C80.8577 17.2689 77.6735 15.0497 72.5596 10.2252C63.5862 1.83072 58.3758 -0.774483 52.6829 0.190405C47.8585 1.05881 43.42 1.05881 37.6307 0.286894C34.35 -0.195549 32.3238 0.0939159 29.4291 1.54125Z" fill="#D5133A"/>
<path d="M25.666 33.0931C24.8941 35.0229 24.8941 48.9173 25.666 48.9173C25.9555 48.9173 27.4028 48.1453 28.7537 47.1805C31.5518 45.2507 35.6044 43.6104 39.8499 42.742C43.5165 41.8736 42.3586 40.6192 37.1482 39.8473C31.5518 38.9789 31.4554 37.2421 37.1482 37.6281C43.034 37.9175 42.6481 36.3737 36.2798 34.3474C27.0169 31.5493 26.3415 31.4528 25.666 33.0931Z" fill="#D5133A"/>
<path d="M56.3495 33.7685C48.4374 36.1807 47.183 37.9175 53.5513 37.6281C59.2441 37.2421 59.1476 38.9789 53.5513 39.8473C48.1479 40.6192 47.2795 41.7771 51.332 42.6455C53.0688 43.0314 57.0249 44.5753 60.1125 46.1191L65.7089 48.9173L65.4194 40.5227C65.2264 35.9878 64.744 32.0317 64.1651 31.9352C63.6826 31.8387 60.1125 32.6106 56.3495 33.7685Z" fill="#D5133A"/>
<path d="M44.0954 49.5927C42.6481 50.9435 43.42 53.7417 45.2533 53.7417C47.4725 53.7417 48.5339 51.5225 46.9901 49.9786C45.7357 48.7243 44.9638 48.6278 44.0954 49.5927Z" fill="#D5133A"/>
<path d="M22.1924 53.9347C19.7802 59.1451 19.7802 61.9433 22.0959 73.136C25.5695 89.6356 34.6395 125.915 35.8938 127.942C36.4728 129.003 38.9815 130.354 41.2972 130.933C49.6917 133.056 51.3321 135.178 58.8582 154.283C63.9721 167.02 64.8405 168.37 70.0509 170.59C73.5245 172.23 74.8753 172.327 78.0595 171.458C85.3926 169.528 90.1206 161.616 87.9013 154.862C85.1996 146.757 75.3578 142.897 68.3141 147.046L65.0335 148.976L45.3497 99.3809C34.4465 72.1711 25.1836 49.8821 24.7976 49.8821C24.4117 49.8821 23.1573 51.7154 22.1924 53.9347ZM80.0857 153.125C81.2436 154.283 82.0155 156.309 82.0155 158.432C82.0155 165.379 73.7175 168.467 69.5684 163.16C66.8668 159.783 67.0597 156.502 69.9544 153.608C72.8491 150.617 77.384 150.424 80.0857 153.125Z" fill="#D5133A"/>
<path d="M57.0249 70.4343C52.4899 81.627 48.3409 92.1443 47.6655 93.7846C46.6041 96.3898 46.9901 97.9336 51.6215 109.705L56.7354 122.731L57.7003 118.872C64.1651 94.3635 70.4369 66.1888 70.4369 61.7503C70.4369 57.9872 67.3492 49.8821 65.9019 49.8821C65.5159 49.8821 61.4634 59.1451 57.0249 70.4343Z" fill="#D5133A"/>
<path d="M43.42 65.3204C43.42 66.5747 44.0954 67.2502 45.3498 67.2502C46.6041 67.2502 47.2795 66.5747 47.2795 65.3204C47.2795 64.066 46.6041 63.3906 45.3498 63.3906C44.0954 63.3906 43.42 64.066 43.42 65.3204Z" fill="#D5133A"/>
<path d="M43.42 78.8288C43.42 80.0832 44.0954 80.7586 45.3498 80.7586C46.6041 80.7586 47.2795 80.0832 47.2795 78.8288C47.2795 77.5745 46.6041 76.899 45.3498 76.899C44.0954 76.899 43.42 77.5745 43.42 78.8288Z" fill="#D5133A"/>
<path d="M29.4291 139.52L25.666 148.976L22.7714 147.239C20.9381 146.178 17.9469 145.406 15.2452 145.406C11.4822 145.406 10.0348 145.985 7.23665 148.397C-1.64033 156.213 1.92976 169.046 13.7979 171.844C17.175 172.616 24.4117 169.625 26.3414 166.441C27.1134 165.283 30.1045 158.625 32.8062 151.871C35.6044 145.117 38.885 137.976 40.1393 136.143C42.1656 133.249 42.1656 132.863 40.7183 132.863C39.8499 132.863 37.8236 132.187 36.2798 131.415C34.8325 130.643 33.4816 129.968 33.2886 129.968C33.1921 129.968 31.4553 134.213 29.4291 139.52ZM20.7451 153.608C23.6398 156.502 23.8327 159.783 21.131 163.16C16.982 168.467 8.68398 165.379 8.68398 158.432C8.68398 151.678 16.0171 148.783 20.7451 153.608Z" fill="#D5133A"/>
</svg>
